<svg id="Calque_1" data-name="Calque 1" xmlns="http://www.w3.org/2000/svg" viewBox="0 0 260.79 56.69"><defs><style>.cls-1{fill:#2e415c;}.cls-2{fill:#e71f69;}</style></defs><title>SOPHiA_pink_prevent_svg</title><path class="cls-1" d="M67.93,39.29l3.12-1.67c1.67,3,4.12,5.52,9.12,5.52,4.12,0,7.35-2.29,7.35-6s-2.24-5.42-6.67-7.4L78,28.4c-5-2.29-7.81-4.74-7.81-9.69,0-5.11,4-8.5,9.32-8.5a10.43,10.43,0,0,1,9.59,5.32l-3,1.87a7.22,7.22,0,0,0-6.57-3.85c-3.49,0-5.62,2-5.62,5.05s1.67,4.54,5.62,6.36l2.82,1.3c5.89,2.61,8.91,5.53,8.91,10.84,0,5.84-4.64,9.38-11,9.38C73.5,46.48,69.8,43,67.93,39.29Z"/><path class="cls-1" d="M96.9,28.35c0-10.68,8.12-18.14,18.18-18.14s18.24,7.46,18.24,18.14-8.13,18.13-18.24,18.13S96.9,39,96.9,28.35Zm32.51,0c0-8.44-6-14.75-14.33-14.75S100.8,19.91,100.8,28.35s6,14.74,14.28,14.74S129.41,36.79,129.41,28.35Z"/><path class="cls-1" d="M141,10.63h8c9.69,0,14.64,5.37,14.64,13.34S158.69,37.26,149,37.26h-4.27v8.8H141ZM148.79,34c8,0,11-4.16,11-10s-3-10-11-10h-4.06V34Z"/><path class="cls-1" d="M171.41,10.63h3.75v20h19v-20h3.76V46.06h-3.76V34h-19v12h-3.75Z"/><path class="cls-1" d="M206.68,24.49h3.65V46.06h-3.65Z"/><path class="cls-1" d="M230.91,10.27h.63l15,35.79h-4l-2.4-5.94H222.26l-2.34,5.94h-3.7Zm7.92,26.62-6.25-15.73a44.09,44.09,0,0,1-1.36-4.22s-.73,2.55-1.4,4.22l-6.26,15.73Z"/><path class="cls-2" d="M205.9,15.69a2.61,2.61,0,1,1,5.21,0,2.61,2.61,0,0,1-5.21,0Z"/><path class="cls-1" d="M242.75,11.67V10.48h5.18v1.19h-1.87v5.62h-1.38V11.67Zm6.5-1.28h.13L252.69,14,256,10.39h.12v6.9h-1.35v-4l-2.08,2.39-2.06-2.39v4h-1.38Z"/><circle class="cls-1" cx="24.76" cy="10.81" r="5.67"/><circle class="cls-1" cx="13.49" cy="14.92" r="4.25"/><circle class="cls-1" cx="7.5" cy="25.3" r="2.83"/><circle class="cls-1" cx="9.58" cy="37.11" r="2.13"/><circle class="cls-1" cx="24.76" cy="45.88" r="5.67"/><circle class="cls-1" cx="36.03" cy="41.78" r="4.25"/><circle class="cls-1" cx="42.03" cy="31.39" r="2.83"/><circle class="cls-1" cx="39.95" cy="19.58" r="2.13"/></svg>