<?xml version="1.0" encoding="iso-8859-1"?>
<!-- Generator: Adobe Illustrator 19.0.0, SVG Export Plug-In . SVG Version: 6.00 Build 0)  -->
<svg version="1.1" id="Layer_1" xmlns="http://www.w3.org/2000/svg" xmlns:xlink="http://www.w3.org/1999/xlink" x="0px" y="0px"
	 viewBox="0 0 512 512" style="enable-background:new 0 0 512 512;" xml:space="preserve">
<g>
	<g>
		<path style="fill:#fee08b;" d="M469.333,0h-64c-5.675,0-11.093,2.24-15.083,6.251l-53.333,53.312C325.931,25.152,294.016,0,256,0
			c-38.037,0-69.931,25.152-80.939,59.563L121.749,6.251C117.739,2.24,112.32,0,106.667,0h-64C30.869,0,21.333,9.557,21.333,21.333
			s9.536,21.333,21.333,21.333h55.168l83.947,83.947c2.901,5.227,6.293,10.091,10.219,14.571V192h-25.408
			c-33.024,0-60.395,24.789-63.659,57.621l-12.821,128v0.021c-1.792,17.963,4.139,35.947,16.256,49.323
			C118.464,440.341,135.765,448,153.813,448h19.883c9.536,36.693,42.645,64,82.304,64c39.637,0,72.747-27.307,82.304-64h19.883
			c18.027,0,35.328-7.659,47.424-21.035c12.139-13.376,18.048-31.36,16.256-49.323v-0.021l-12.821-127.979
			C405.781,216.789,378.411,192,345.387,192H320v-50.816c3.904-4.48,7.296-9.344,10.219-14.571l83.947-83.947h55.168
			c11.776,0,21.333-9.557,21.333-21.333S481.109,0,469.333,0z M192,263.915c-0.619,0.683-1.045,1.493-1.621,2.197
			c-2.432,2.965-4.757,5.973-6.763,9.237c-0.875,1.387-1.557,2.859-2.347,4.288c-1.664,3.072-3.307,6.144-4.608,9.451
			c-0.853,2.176-1.408,4.459-2.069,6.699c-0.811,2.709-1.771,5.355-2.325,8.192c-1.024,5.248-1.6,10.603-1.6,16.021v85.333h-16.853
			c-6.123,0-11.712-2.496-15.829-7.019c-4.096-4.523-6.016-10.368-5.419-16.448l12.821-128c1.088-10.944,10.219-19.2,21.205-19.2
			H192V263.915z M277.333,213.333v24.085c-0.768-0.192-1.579-0.277-2.347-0.448c-1.323-0.299-2.667-0.555-4.032-0.789
			c-4.928-0.896-9.899-1.515-14.955-1.515c-5.077,0-10.048,0.619-14.976,1.515c-1.344,0.235-2.688,0.491-4.032,0.789
			c-0.768,0.171-1.579,0.256-2.325,0.448v-24.085v-45.419c0.747,0.192,1.536,0.256,2.283,0.448c1.387,0.299,2.773,0.555,4.181,0.811
			c4.672,0.832,9.408,1.387,14.165,1.429c0.235,0,0.448,0.064,0.704,0.064c0.235,0,0.448-0.064,0.683-0.064
			c4.757-0.043,9.493-0.597,14.165-1.429c1.408-0.256,2.795-0.512,4.181-0.811c0.747-0.192,1.536-0.256,2.304-0.448V213.333z
			 M345.387,234.667c11.008,0,20.117,8.256,21.205,19.2l12.821,128c0.597,6.08-1.323,11.925-5.419,16.448
			c-4.117,4.523-9.707,7.019-15.808,7.019h-16.853V320c0-5.419-0.597-10.773-1.621-16.021c-0.555-2.816-1.493-5.461-2.304-8.192
			c-0.683-2.24-1.237-4.523-2.091-6.699c-1.28-3.285-2.923-6.357-4.587-9.429c-0.789-1.451-1.493-2.923-2.368-4.331
			c-2.005-3.243-4.288-6.208-6.699-9.131c-0.597-0.747-1.045-1.579-1.664-2.304v-29.227H345.387z"/>
	</g>
</g>
<g>
</g>
<g>
</g>
<g>
</g>
<g>
</g>
<g>
</g>
<g>
</g>
<g>
</g>
<g>
</g>
<g>
</g>
<g>
</g>
<g>
</g>
<g>
</g>
<g>
</g>
<g>
</g>
<g>
</g>
</svg>
